<svg xmlns="http://www.w3.org/2000/svg" xmlns:xlink="http://www.w3.org/1999/xlink" preserveAspectRatio="none" width="42" height="42"><defs><g id="A" stroke="none"><path fill="#55575b" d="M1135.55 48q2.35 1.1 4.7 1.45l.1.05 1.55.2h3.6l1.5-.2.15-.05q2.4-.4 4.65-1.45l1.75-.9 3.3-2.4h-.05q3-2.75 4.7-6.45 1.75-3.8 1.75-8 0-8-5.75-13.8-5.7-5.7-13.75-5.7-8.1 0-13.8 5.7-5.7 5.75-5.7 13.8 0 4.2 1.65 8 1.65 3.65 4.6 6.4l.65.55 2.7 1.9 1.7.9m15.8-25.15q0-2.55-1.35-4.15-2-2.25-6.25-2.25-4.3 0-6.3 2.25-1.4 1.6-1.4 4.15v3.35q-.6.7-.6 1.65v2.5q0 1.25.95 2 .7 2.6 2.2 4.55v2.05q0 .9-.8 1.35l-5.65 3.05-.5.35q-2.8-2.5-4.4-5.95-1.6-3.55-1.6-7.5 0-7.5 5.3-12.75 5.3-5.3 12.8-5.3 7.45 0 12.75 5.3 5.25 5.25 5.25 12.75 0 4-1.6 7.6-1.6 3.4-4.45 5.9l-6.65-3.35q-.85-.4-.85-1.4v-2.1l.4-.6q1.2-1.65 1.85-3.6 1.5-.7 1.5-2.35v-2.5q0-.95-.6-1.65v-3.35z"/><path fill="#eaeaea" d="M1150 18.7q1.35 1.6 1.35 4.15v3.35q.6.7.6 1.65v2.5q0 1.65-1.5 2.35-.65 1.95-1.85 3.6l-.4.6V39q0 1 .85 1.4l6.65 3.35q2.85-2.5 4.45-5.9 1.6-3.6 1.6-7.6 0-7.5-5.25-12.75-5.3-5.3-12.75-5.3-7.5 0-12.8 5.3-5.3 5.25-5.3 12.75 0 3.95 1.6 7.5 1.6 3.45 4.4 5.95l.5-.35 5.65-3.05q.8-.45.8-1.35V36.9q-1.5-1.95-2.2-4.55-.95-.75-.95-2v-2.5q0-.95.6-1.65v-3.35q0-2.55 1.4-4.15 2-2.25 6.3-2.25 4.25 0 6.25 2.25z"/></g></defs><use xlink:href="#A" transform="translate(-1122.75 -9.25)"/></svg>